<svg xmlns="http://www.w3.org/2000/svg" width="87.982" height="94.013" viewBox="0 0 87.982 94.013">
  <g id="Component_129_1" data-name="Component 129 – 1" transform="translate(0.132 0.119)">
    <g id="Group_17627" data-name="Group 17627">
      <path id="Path_7800" data-name="Path 7800" d="M205.215,334.272a4.284,4.284,0,0,0-.815-2.531,1.972,1.972,0,0,0-2.565-.569.5.5,0,0,0,.5.858.905.905,0,0,1,1.2.244,1.175,1.175,0,0,0-.97.244c-.027.016-.055.024-.082.041a.953.953,0,0,0-.448.667,3.5,3.5,0,0,0-.312,1.213,4.217,4.217,0,0,0,.564,2.531,2.055,2.055,0,0,0,.948,1.1,1.282,1.282,0,0,0,1.649-.552A4.574,4.574,0,0,0,205.215,334.272Z" transform="translate(-187.974 -294.874)" fill="#2d2d4a"/>
      <path id="Path_7801" data-name="Path 7801" d="M227.715,334.272a4.284,4.284,0,0,0-.815-2.531,1.972,1.972,0,0,0-2.565-.569.5.5,0,0,0,.5.858.905.905,0,0,1,1.2.244,1.175,1.175,0,0,0-.97.244c-.027.016-.055.024-.082.041a.953.953,0,0,0-.448.667,3.5,3.5,0,0,0-.312,1.213,4.217,4.217,0,0,0,.564,2.531,2.055,2.055,0,0,0,.948,1.1,1.282,1.282,0,0,0,1.649-.552A4.574,4.574,0,0,0,227.715,334.272Z" transform="translate(-193.855 -294.874)" fill="#2d2d4a"/>
      <path id="Path_7802" data-name="Path 7802" d="M207.086,358.658a2.7,2.7,0,0,1,2.7-.928c1.532.5,2.115-.682,4.04-.121a4.473,4.473,0,0,0,4.184-.634" transform="translate(-189.409 -301.686)" fill="none" stroke="#2d2d4a" strokeWidth="0.269"/>
      <path id="Path_7803" data-name="Path 7803" d="M208.985,359.476a8.81,8.81,0,0,0,5.557-.191" transform="translate(-189.906 -302.29)" fill="none" stroke="#2d2d4a" strokeWidth="0.269"/>
      <path id="Path_7804" data-name="Path 7804" d="M194.939,315.012s1.847,8.371-3.324,19.943,3.939,33.854,36.069,25.852" transform="translate(-185.011 -290.718)" fill="none" stroke="#2d2d4a" strokeWidth="0.25"/>
      <path id="Path_7805" data-name="Path 7805" d="M236.3,355.161a20.523,20.523,0,0,0,8-9.725s4.924.246,6.155-9.48-4.062-10.463-6.155-8.617-2.462,7.878-2.462,7.878l-2.093.767s2.339-9.138,0-10.492-12.679-4.555-12.8-17.481c0,0-20.8,10.833-21.174,2.955a19.6,19.6,0,0,0-12.8,3.078c-2.585,1.477-5.786-.985-5.54-2.709" transform="translate(-184.267 -288.888)" fill="none" stroke="#2d2d4a" strokeWidth="0.25"/>
      <path id="Path_7806" data-name="Path 7806" d="M235.23,374.6s.621,5.628,0,6.614,1.225,5.662,8.611,1.477a30.614,30.614,0,0,0,10.71-9.849v-8.49" transform="translate(-196.736 -303.614)" fill="none" stroke="#2d2d4a" strokeWidth="0.25"/>
      <path id="Path_7807" data-name="Path 7807" d="M190.259,403.429s3.2-8.248,8.25-9.849,25-6.4,25-6.4" transform="translate(-185.011 -309.58)" fill="none" stroke="#2d2d4a" strokeWidth="0.25"/>
      <path id="Path_7808" data-name="Path 7808" d="M261.428,375.845s0,4.555,8.554,5.663,17.544,4.678,21.36,18.958" transform="translate(-203.613 -306.618)" fill="none" stroke="#2d2d4a" strokeWidth="0.25"/>
      <path id="Path_7809" data-name="Path 7809" d="M193.251,320.373s-7.6.9-9.2-3.905.343-9.355,2.326-10.956" transform="translate(-183.234 -288.235)" fill="none" stroke="#2d2d4a" strokeWidth="0.25"/>
      <path id="Path_7810" data-name="Path 7810" d="M249.255,323.765s3.9-16.242-6.069-23.5c0,0-.369-13.419-16.865-17.235s-24.005,5.663-29.669,6.032-17.059,9.623-12.407,13.306" transform="translate(-183.154 -282.121)" fill="none" stroke="#2d2d4a" strokeWidth="0.25"/>
      <path id="Path_7811" data-name="Path 7811" d="M268.282,339.987s.123-2.709-1.231-3.324-4.555,5.416-1.97,10.71" transform="translate(-204.312 -296.366)" fill="none" stroke="#2d2d4a" strokeWidth="0.25"/>
      <path id="Path_7812" data-name="Path 7812" d="M211.43,334.512s.617,2.322,0,2.946-3.326.993-3.7,3.455.49,5.786,5.785,5.047" transform="translate(-189.559 -295.815)" fill="none" stroke="#2d2d4a" strokeWidth="0.25"/>
      <path id="Path_7813" data-name="Path 7813" d="M206.765,324.4s-3.324-2.585-5.17,1.6" transform="translate(-187.974 -292.965)" fill="none" stroke="#2d2d4a" strokeWidth="0.25"/>
      <path id="Path_7814" data-name="Path 7814" d="M224.1,323.137s3.446-3.693,5.54,1.194" transform="translate(-193.855 -292.492)" fill="none" stroke="#2d2d4a" strokeWidth="0.25"/>
    </g>
  </g>
</svg>
