<svg id="Iconly_Light-outline_Add_User" data-name="Iconly/Light-outline/Add User" xmlns="http://www.w3.org/2000/svg" width="19.421" height="19.795" viewBox="0 0 19.421 19.795">
  <g id="Add_User" data-name="Add User" transform="translate(0 0)">
    <path id="Add_User-2" data-name="Add User" d="M2.056,18.97a3,3,0,0,1,0-5.7,15.466,15.466,0,0,1,5.825-.815l.324,0a14.406,14.406,0,0,1,5.583.861,2.93,2.93,0,0,1,1.97,2.817A2.888,2.888,0,0,1,13.873,18.9a13.622,13.622,0,0,1-5.352.886l-.643.005A15.309,15.309,0,0,1,2.056,18.97ZM7.54,13.957c-4.008.04-6.04.765-6.04,2.158,0,.716.543,1.264,1.613,1.63a15.681,15.681,0,0,0,4.764.55c4.232,0,6.377-.726,6.377-2.159,0-.716-.543-1.265-1.613-1.63a15.717,15.717,0,0,0-4.765-.55Zm10.586-3.207-.075-.069-.884-.949-.918.856a.75.75,0,0,1-1.094-1.022l.071-.074.917-.856-.882-.947A.75.75,0,0,1,16.285,6.6l.075.069.882.947.918-.856a.75.75,0,0,1,1.093,1.023l-.07.074-.917.855.884.949a.75.75,0,0,1-1.022,1.093ZM4.112,9.083A5.318,5.318,0,0,1,7.877,0a5.3,5.3,0,0,1,5.318,5.318A5.324,5.324,0,0,1,4.112,9.083Zm1.06-6.469A3.842,3.842,0,1,0,7.877,1.5,3.8,3.8,0,0,0,5.172,2.614Z" transform="translate(0 0)" fill="#24aae1"/>
  </g>
</svg>