<svg id="Component_133_6" data-name="Component 133 – 6" xmlns="http://www.w3.org/2000/svg" width="147.804" height="71.045" viewBox="0 0 147.804 71.045">
  <g id="Group_16379" data-name="Group 16379" transform="translate(0 5.988)">
    <g id="Group_16377" data-name="Group 16377" transform="translate(1.13 0)">
      <rect id="Rectangle_54019" data-name="Rectangle 54019" width="5.956" height="5.956" transform="translate(62.597 6.474) rotate(-45)" fill="#fff"/>
      <rect id="Rectangle_54020" data-name="Rectangle 54020" width="5.956" height="5.956" transform="translate(70.355 6.474) rotate(-45)" fill="#fff"/>
      <path id="Path_7682" data-name="Path 7682" d="M2967.135,360.495c.026-.026.065-.039.092-.066a.049.049,0,0,0,.013-.039" transform="translate(-2949.973 -324.769)" fill="#fff"/>
      <path id="Path_7683" data-name="Path 7683" d="M2970.65,301.806a9.909,9.909,0,0,1-1.754,5.629,9.03,9.03,0,0,1-4.372,3.443l-.1.026a11.12,11.12,0,0,1-3.744.615h-.013c-.2,0-.393-.013-.6-.026a16.765,16.765,0,0,1-7.043-1.924,16.359,16.359,0,0,1-6.48-5.943v1.767a10.967,10.967,0,0,1-.485,3.574,7.358,7.358,0,0,1-2.082,3.129.727.727,0,0,1-.1.1,18.694,18.694,0,0,1-2.186,1.322,11.406,11.406,0,0,1-5.223,1.349,11.81,11.81,0,0,1-6.388-1.558c-2.239-1.4-3.364-3.665-3.364-6.833a20.9,20.9,0,0,1,2.107-8.142c.157-.367.327-.759.524-1.165.825-.956,2.055-2.4,3.678-4.294q-2.1,5.891-2.094,8.339c0,2.671.576,4.438,1.741,5.289a6.613,6.613,0,0,0,3.875.824,8.827,8.827,0,0,0,2.487-.484,6.908,6.908,0,0,0,2.186-.995l-.026-18.432a3.121,3.121,0,0,1-1.663-2.37q0-2.238,5.315-8.575a7.912,7.912,0,0,0-.471,2.331,4.925,4.925,0,0,0,1.152,3.168,20.729,20.729,0,0,0,2.593,2.356l-1.571,1.99v11.468a10.3,10.3,0,0,0,2.723,1.662l.851.288c.079.327.157.655.262.969.079.262.157.484.249.733a9.454,9.454,0,0,0,.6,1.27,8.5,8.5,0,0,0,3.508,3.312,8.757,8.757,0,0,0,3.653.995,2.507,2.507,0,0,0,.314.013,5.8,5.8,0,0,0,1.95-.314l.052-.026a4.651,4.651,0,0,0,2.265-1.78,5.045,5.045,0,0,0,.916-2.919,5.189,5.189,0,0,0-9.294-3.168l-.065.1a5.46,5.46,0,0,0-.707,1.3l-.289.8-.746-.248a5.56,5.56,0,0,1-1.9-1.322l.393-1.048a9.653,9.653,0,0,1,1.348-2.5l.131-.183a9.856,9.856,0,0,1,7.907-3.9A9.995,9.995,0,0,1,2970.65,301.806Z" transform="translate(-2926.704 -276.475)" fill="#fff"/>
      <path id="Path_7684" data-name="Path 7684" d="M3037.387,288.758c.472,4.412.72,9.818.72,12.711a26.659,26.659,0,0,1-.891,7.789,21.816,21.816,0,0,1-4.032,6.833c0-8.744-.432-20.565-1.322-26.011,0-.013-.013-.026-.013-.039v-.013h-.026a3.3,3.3,0,0,1-1.715-2.487c0-1.545,1.819-4.543,5.459-8.967a7.9,7.9,0,0,0-.5,2.435,5.271,5.271,0,0,0,1.177,3.325,2.738,2.738,0,0,0,.2.236c.131.144.288.3.484.484.471.458,1.125,1.034,1.964,1.741l-1.479,1.911v.013Z" transform="translate(-2986.216 -277.682)" fill="#fff"/>
      <path id="Path_7685" data-name="Path 7685" d="M3083.724,309.876a12.716,12.716,0,0,1-.484,3.7,17.018,17.018,0,0,1-1.505,3.39,7.811,7.811,0,0,1-3.469,3.168c-1.427.681-6.061,1.021-8.129,1.048a16.172,16.172,0,0,1-5.367,5.04,16.864,16.864,0,0,1-2.448,1.165c-.471.183-.93.34-1.414.484a28.722,28.722,0,0,1-4.883,1.047c.157-.1.327-.222.471-.327l.367-.262c.523-.419.956-.773,1.335-1.139a11.053,11.053,0,0,0,2.815-3.953l.3-.851a8.261,8.261,0,0,0,.969-.262,5.431,5.431,0,0,0,.733-.249,9.43,9.43,0,0,0,1.27-.6,8.533,8.533,0,0,0,3.312-3.5,8.857,8.857,0,0,0,1-3.652,2.606,2.606,0,0,0,.013-.314,5.818,5.818,0,0,0-.314-1.95l-.026-.065a4.711,4.711,0,0,0-1.781-2.265,5.18,5.18,0,0,0-6.088,8.378l.1.078a5.64,5.64,0,0,0,1.3.694l.8.288-.249.759a5.788,5.788,0,0,1-1.309,1.886l-1.06-.38a9.714,9.714,0,0,1-2.5-1.361l-.183-.118a9.884,9.884,0,0,1-3.9-7.92,9.985,9.985,0,0,1,15.618-8.234,9.171,9.171,0,0,1,3.43,4.385l.039.092a11.6,11.6,0,0,1,.6,3.757c0,.21,0,.406-.013.6a16.485,16.485,0,0,1-.288,2.409c1.336-.078,4.294-.157,4.87-.249a11.4,11.4,0,0,0,1.819-.484,4.612,4.612,0,0,0,1.3-.72,9.776,9.776,0,0,0-.615-1.754,12.306,12.306,0,0,0-.969-1.78,18.365,18.365,0,0,0-1.165-1.584,11.572,11.572,0,0,0-1.139-1.2l3.4-6.205a17.3,17.3,0,0,1,2.422,4.15A12.4,12.4,0,0,1,3083.724,309.876Z" transform="translate(-2999.615 -290.515)" fill="#fff"/>
      <path id="Path_7686" data-name="Path 7686" d="M3001.31,291.727a14.2,14.2,0,0,1-5.573,4.151,14.721,14.721,0,0,1-6.817,1.348c1.052-.552,2.1-.968,3.127-1.425,3.049-1.3,6.163-2.749,9.263-4.074Z" transform="translate(-2962.51 -285.253)" fill="#fff"/>
    </g>
    <g id="Group_16378" data-name="Group 16378" transform="translate(0 42.975)">
      <path id="Path_7687" data-name="Path 7687" d="M2924.041,377.716v2.23h3.379v8.466h2.645v-8.466h3.379v-2.23Z" transform="translate(-2924.041 -377.716)" fill="#fff"/>
      <path id="Path_7688" data-name="Path 7688" d="M2955.629,377.716h-3.092l-4.12,10.7h2.865l.7-2.079h4.135l.7,2.079h2.926Zm-2.9,6.425,1.323-3.908,1.323,3.908Z" transform="translate(-2938.07 -377.716)" fill="#fff"/>
      <path id="Path_7689" data-name="Path 7689" d="M2992.6,377.716l-1.973,7.317-1.965-7.317h-2.956l-1.965,7.317-1.965-7.317H2978.9l3.228,10.7h3.023l1.935-7.052,1.935,7.052h3.031l3.213-10.7Z" transform="translate(-2955.615 -377.716)" fill="#fff"/>
      <path id="Path_7690" data-name="Path 7690" d="M3028.494,377.716h-3.084l-4.127,10.7h2.865l.711-2.079h4.127l.711,2.079h2.925Zm-2.895,6.425,1.315-3.908,1.323,3.908Z" transform="translate(-2980.005 -377.716)" fill="#fff"/>
      <path id="Path_7691" data-name="Path 7691" d="M3061.191,382.765a3.288,3.288,0,0,0-2.427-.824h-2a.994.994,0,0,1-.741-.257,1.207,1.207,0,0,1,0-1.489,1.021,1.021,0,0,1,.741-.25h4.792v-2.23H3056.2a3.434,3.434,0,0,0-2.4,5.639,3.24,3.24,0,0,0,2.4.8h2.033a1.017,1.017,0,0,1,0,2.033h-4.944v2.222h5.473a2.9,2.9,0,0,0,3.258-3.235,3.241,3.241,0,0,0-.832-2.411Z" transform="translate(-2998.258 -377.716)" fill="#fff"/>
      <path id="Path_7692" data-name="Path 7692" d="M3086.509,377.716h-3.092l-4.119,10.7h2.857l.71-2.079h4.127l.711,2.079h2.925Zm-2.9,6.425,1.323-3.908,1.315,3.908Z" transform="translate(-3013.394 -377.716)" fill="#fff"/>
      <path id="Path_7693" data-name="Path 7693" d="M3116.878,386.19a3.566,3.566,0,0,1-1.384-.219,1.346,1.346,0,0,1-.718-.711,3.635,3.635,0,0,1-.219-1.391v-6.153h-2.638v6.516a3.685,3.685,0,0,0,4.188,4.18h3.666V386.19Z" transform="translate(-3032.168 -377.716)" fill="#fff"/>
    </g>
  </g>
  <g id="Group_16380" data-name="Group 16380" transform="translate(96.087)">
    <path id="Path_7694" data-name="Path 7694" d="M3202.119,288.544v.024c0,.534-.023,1.068-.047,1.578-.026.607-.074,1.214-.124,1.8a41.124,41.124,0,0,1-.63,4.516,45.18,45.18,0,0,1-4.3,12.213,45.978,45.978,0,0,1-2.646,4.444,42.514,42.514,0,0,1-14.085,13.208,44.873,44.873,0,0,1-6.433,3.084c-1.238.461-2.452.9-3.716,1.287a77.66,77.66,0,0,1-11.946,2.6c-.292.049-.583.073-.875.121l.1-.048c.389-.267.778-.559,1.143-.825l.946-.68a45.215,45.215,0,0,0,3.545-2.986,29.365,29.365,0,0,0,7.382-10.368l.778-2.234c.849-.194,1.7-.413,2.525-.68a18.566,18.566,0,0,0,1.942-.68,23.586,23.586,0,0,0,3.351-1.578,22.161,22.161,0,0,0,8.669-9.178,22.766,22.766,0,0,0,2.62-9.591c.026-.291.05-.559.05-.826a15.157,15.157,0,0,0-.849-5.123l-.05-.146a12.5,12.5,0,0,0-4.662-5.973,13.617,13.617,0,0,0-16,22.023l.266.17a13.366,13.366,0,0,0,3.424,1.845l2.089.777-.68,1.991a15.177,15.177,0,0,1-3.424,4.953l-2.767-1.02a25.879,25.879,0,0,1-6.58-3.57l-.486-.315a26.21,26.21,0,0,1,30.763-42.418,24,24,0,0,1,9.034,11.509l.071.267A29.172,29.172,0,0,1,3202.119,288.544Z" transform="translate(-3150.402 -262.369)" fill="#fff"/>
    <path id="Path_7695" data-name="Path 7695" d="M3205.115,288.657c0,.534-.023,1.068-.047,1.578-.027.607-.074,1.214-.124,1.821a40.68,40.68,0,0,1-.631,4.492,45.6,45.6,0,0,1-6.942,16.681,43.023,43.023,0,0,1-14.085,13.209,47.577,47.577,0,0,1-6.433,3.084c-1.238.461-2.452.874-3.716,1.286a87.482,87.482,0,0,1-12.724,2.6,3.757,3.757,0,0,0,.933-.5q.543-.293,1.085-.589,1.018-.558,2.029-1.127,1.936-1.091,3.844-2.232,3.489-2.088,6.856-4.369a88.4,88.4,0,0,0,10.606-8.352c6.136-5.731,12.3-13.789,11.358-22.746-.732-6.986-3.738-14.18-9.772-18.17-4.61-3.048-10.369-3.768-15.767-3.116a34.939,34.939,0,0,0-10.019,2.706,46.366,46.366,0,0,0-5.959,3.208,26.576,26.576,0,0,1,12.285-12.918c.292-.146.607-.292.9-.413,11.023-5.147,21.393-.655,25.615,2.259a24,24,0,0,1,9.034,11.509l.071.242A29.319,29.319,0,0,1,3205.115,288.657Z" transform="translate(-3153.398 -262.409)" fill="#fff" style="mix-blend-mode: overlay;isolation: isolate"/>
  </g>
</svg>
