<svg xmlns="http://www.w3.org/2000/svg" xmlns:xlink="http://www.w3.org/1999/xlink" width="147.01" height="71.208" viewBox="0 0 147.01 71.208">
  <defs>
    <linearGradient id="linear-gradient" y1="0.5" x2="1" y2="0.5" gradientUnits="objectBoundingBox">
      <stop offset="0" stop-color="#fff"/>
      <stop offset="1"/>
    </linearGradient>
  </defs>
  <g id="Logo" transform="translate(-407.253 -5067.589)">
    <g id="Group_16359" data-name="Group 16359" transform="translate(407.253 5087.925)">
      <g id="Group_16358" data-name="Group 16358" transform="translate(0 0)">
        <rect id="Rectangle_54006" data-name="Rectangle 54006" width="5.97" height="5.97" transform="translate(62.74 6.489) rotate(-45)" fill="#24aae1"/>
        <rect id="Rectangle_54007" data-name="Rectangle 54007" width="5.97" height="5.97" transform="translate(70.516 6.489) rotate(-45)" fill="#24aae1"/>
        <path id="Path_7629" data-name="Path 7629" d="M450.106,5207.3c.026-.026.065-.04.092-.066a.047.047,0,0,0,.013-.04" transform="translate(-432.904 -5171.488)" fill="#24aae1"/>
        <path id="Path_7630" data-name="Path 7630" d="M451.3,5143.64a9.933,9.933,0,0,1-1.758,5.642,9.047,9.047,0,0,1-4.382,3.451l-.105.026a11.143,11.143,0,0,1-3.752.617h-.013c-.2,0-.393-.013-.6-.026a16.815,16.815,0,0,1-7.059-1.928,16.4,16.4,0,0,1-6.494-5.957v1.771a10.994,10.994,0,0,1-.486,3.582,7.384,7.384,0,0,1-2.086,3.135.668.668,0,0,1-.105.105,18.684,18.684,0,0,1-2.191,1.325,11.432,11.432,0,0,1-5.235,1.352,11.829,11.829,0,0,1-6.4-1.562c-2.244-1.4-3.372-3.673-3.372-6.849a20.948,20.948,0,0,1,2.113-8.161c.157-.367.328-.761.525-1.168.827-.958,2.06-2.4,3.687-4.3q-2.106,5.9-2.1,8.358c0,2.676.577,4.448,1.745,5.3a6.623,6.623,0,0,0,3.884.827,8.878,8.878,0,0,0,2.493-.485,6.936,6.936,0,0,0,2.191-1l-.026-18.474a3.128,3.128,0,0,1-1.666-2.375q0-2.243,5.327-8.594a7.931,7.931,0,0,0-.472,2.335,4.937,4.937,0,0,0,1.154,3.175,20.807,20.807,0,0,0,2.6,2.362l-1.574,1.994v11.494a10.326,10.326,0,0,0,2.729,1.667l.853.288c.079.328.157.656.263.971.079.263.157.485.249.734a9.429,9.429,0,0,0,.6,1.272,8.51,8.51,0,0,0,3.516,3.32,8.771,8.771,0,0,0,3.661,1,2.424,2.424,0,0,0,.315.014,5.82,5.82,0,0,0,1.955-.315l.052-.026a4.669,4.669,0,0,0,2.27-1.785,5.054,5.054,0,0,0,.918-2.925,5.2,5.2,0,0,0-9.316-3.176l-.066.1a5.478,5.478,0,0,0-.709,1.3l-.289.8-.748-.249a5.565,5.565,0,0,1-1.9-1.325l.393-1.05a9.694,9.694,0,0,1,1.352-2.506l.131-.184a9.88,9.88,0,0,1,7.925-3.909A10.017,10.017,0,0,1,451.3,5143.64Z" transform="translate(-407.253 -5118.251)" fill="#24aae1"/>
        <path id="Path_7631" data-name="Path 7631" d="M524.146,5130.682c.472,4.422.722,9.84.722,12.74a26.727,26.727,0,0,1-.892,7.807,21.886,21.886,0,0,1-4.041,6.849c0-8.765-.433-20.613-1.326-26.071,0-.013-.013-.027-.013-.04v-.013h-.026a3.314,3.314,0,0,1-1.719-2.493c0-1.548,1.824-4.553,5.472-8.988a7.916,7.916,0,0,0-.5,2.44,5.283,5.283,0,0,0,1.18,3.333,2.729,2.729,0,0,0,.2.236c.131.145.289.3.485.485.472.459,1.128,1.037,1.968,1.745l-1.483,1.915v.014Z" transform="translate(-472.857 -5119.582)" fill="#24aae1"/>
        <path id="Path_7632" data-name="Path 7632" d="M571.931,5153.133a12.739,12.739,0,0,1-.485,3.713,17.019,17.019,0,0,1-1.509,3.4,7.828,7.828,0,0,1-3.477,3.175c-1.43.682-6.075,1.024-8.148,1.05a16.2,16.2,0,0,1-5.38,5.052,16.839,16.839,0,0,1-2.453,1.167c-.472.185-.932.341-1.417.486a28.713,28.713,0,0,1-4.894,1.049c.157-.1.328-.222.472-.328l.368-.262c.525-.419.958-.774,1.338-1.141a11.085,11.085,0,0,0,2.821-3.962l.3-.853a8.131,8.131,0,0,0,.971-.263,5.366,5.366,0,0,0,.735-.249,9.437,9.437,0,0,0,1.273-.6,8.557,8.557,0,0,0,3.32-3.5,8.881,8.881,0,0,0,1-3.661,2.628,2.628,0,0,0,.013-.315,5.819,5.819,0,0,0-.315-1.955l-.026-.065a4.719,4.719,0,0,0-1.785-2.27,5.135,5.135,0,0,0-2.926-.905,5.191,5.191,0,0,0-5.2,5.195,5.127,5.127,0,0,0,2.021,4.107l.105.079a5.563,5.563,0,0,0,1.3.695l.8.29-.249.761a5.806,5.806,0,0,1-1.312,1.89l-1.063-.381a9.747,9.747,0,0,1-2.506-1.364l-.184-.119a9.9,9.9,0,0,1-3.91-7.938,10.007,10.007,0,0,1,15.653-8.253,9.2,9.2,0,0,1,3.438,4.4l.039.091a11.633,11.633,0,0,1,.6,3.766c0,.21,0,.407-.013.6a16.649,16.649,0,0,1-.289,2.415c1.338-.079,4.3-.158,4.881-.249a11.421,11.421,0,0,0,1.824-.486,4.622,4.622,0,0,0,1.3-.722,9.773,9.773,0,0,0-.617-1.758,12.294,12.294,0,0,0-.971-1.784,18.153,18.153,0,0,0-1.168-1.587,11.551,11.551,0,0,0-1.142-1.208l3.412-6.22a17.347,17.347,0,0,1,2.427,4.16A12.42,12.42,0,0,1,571.931,5153.133Z" transform="translate(-487.629 -5133.727)" fill="#24aae1"/>
        <path id="Path_7633" data-name="Path 7633" d="M485.614,5134.416a14.225,14.225,0,0,1-5.586,4.161,14.76,14.76,0,0,1-6.832,1.351c1.055-.553,2.1-.97,3.134-1.428,3.056-1.3,6.177-2.755,9.284-4.083Z" transform="translate(-446.726 -5127.927)" fill="#24aae1"/>
      </g>
    </g>
    <g id="Group_16360" data-name="Group 16360" transform="translate(502.427 5067.589)">
      <path id="Path_7634" data-name="Path 7634" d="M696.185,5093.824v.023c0,.536-.024,1.071-.047,1.583-.026.608-.074,1.217-.124,1.8a41.185,41.185,0,0,1-.632,4.526A45.284,45.284,0,0,1,691.076,5114a45.956,45.956,0,0,1-2.653,4.455,42.608,42.608,0,0,1-14.117,13.238,44.874,44.874,0,0,1-6.448,3.091c-1.241.462-2.457.9-3.724,1.29a77.807,77.807,0,0,1-11.973,2.6c-.292.049-.584.073-.877.122l.1-.049c.39-.268.779-.56,1.146-.827l.948-.682a45.482,45.482,0,0,0,3.553-2.994,29.426,29.426,0,0,0,7.4-10.392l.78-2.239c.851-.195,1.7-.414,2.531-.682a18.741,18.741,0,0,0,1.946-.68,23.735,23.735,0,0,0,3.358-1.583,22.208,22.208,0,0,0,8.689-9.2,22.813,22.813,0,0,0,2.626-9.612c.026-.292.05-.56.05-.828a15.185,15.185,0,0,0-.851-5.135l-.05-.146a12.528,12.528,0,0,0-4.672-5.987,13.648,13.648,0,0,0-16.037,22.073l.266.171a13.4,13.4,0,0,0,3.432,1.849l2.094.779-.682,2a15.21,15.21,0,0,1-3.432,4.964l-2.773-1.022a25.938,25.938,0,0,1-6.6-3.577l-.487-.316a26.27,26.27,0,0,1,30.834-42.516,24.058,24.058,0,0,1,9.055,11.536l.071.268A29.252,29.252,0,0,1,696.185,5093.824Z" transform="translate(-644.349 -5067.589)" fill="#24aae1"/>
      <path id="Path_7635" data-name="Path 7635" d="M699.488,5093.941c0,.535-.024,1.07-.047,1.582-.026.609-.074,1.216-.124,1.825a40.68,40.68,0,0,1-.632,4.5,45.682,45.682,0,0,1-6.959,16.719,43.1,43.1,0,0,1-14.117,13.239,47.686,47.686,0,0,1-6.448,3.091c-1.241.461-2.457.875-3.724,1.29a87.631,87.631,0,0,1-12.753,2.6,3.713,3.713,0,0,0,.935-.5q.544-.292,1.087-.59,1.021-.56,2.034-1.13,1.941-1.094,3.853-2.237,3.5-2.092,6.872-4.379a88.582,88.582,0,0,0,10.63-8.371c6.151-5.744,12.325-13.821,11.384-22.8-.733-7-3.747-14.212-9.795-18.211-4.62-3.055-10.393-3.776-15.8-3.123a35.046,35.046,0,0,0-10.042,2.712,46.6,46.6,0,0,0-5.973,3.216,26.64,26.64,0,0,1,12.313-12.948c.292-.146.608-.292.9-.414,11.048-5.158,21.442-.657,25.674,2.264a24.054,24.054,0,0,1,9.055,11.536l.071.243A29.4,29.4,0,0,1,699.488,5093.941Z" transform="translate(-647.652 -5067.634)" fill="url(#linear-gradient)" style="mix-blend-mode: overlay;isolation: isolate"/>
    </g>
  </g>
</svg>
